<svg width="316" height="328" xmlns="http://www.w3.org/2000/svg" xmlns:xlink="http://www.w3.org/1999/xlink" xml:space="preserve" overflow="hidden"><g transform="translate(-484 -52)"><g><path d="M421.679 39.9695C459.205 39.9695 489.627 70.391 489.627 107.918L489.627 271.793C489.627 309.32 459.205 339.741 421.679 339.741L257.804 339.741C220.277 339.741 189.855 309.32 189.855 271.793L189.855 107.918C189.855 70.391 220.277 39.9695 257.804 39.9695Z" fill="#2C1A0E" fill-rule="nonzero" fill-opacity="1" transform="matrix(1 0 0 1.00218 299.908 19.7223)"/><path d="M249.81 289.779C249.81 240.111 290.073 199.848 339.741 199.848 389.409 199.848 429.673 240.111 429.673 289.779" stroke="#C4862A" stroke-width="4.99619" stroke-linecap="round" stroke-linejoin="miter" stroke-miterlimit="4" stroke-opacity="1" fill="none" fill-rule="nonzero" transform="matrix(1 0 0 1.00218 299.908 19.7223)"/><path d="M264.798 289.779C264.798 248.389 298.351 214.836 339.741 214.836 381.131 214.836 414.684 248.389 414.684 289.779" stroke="#C4862A" stroke-width="4.99619" stroke-linecap="round" stroke-linejoin="miter" stroke-miterlimit="4" stroke-opacity="0.65" fill="none" fill-rule="nonzero" transform="matrix(1 0 0 1.00218 299.908 19.7223)"/><path d="M281.785 289.779C281.785 257.771 307.733 231.823 339.741 231.823 371.749 231.823 397.697 257.771 397.697 289.779" stroke="#C4862A" stroke-width="4.99619" stroke-linecap="round" stroke-linejoin="miter" stroke-miterlimit="4" stroke-opacity="0.35" fill="none" fill-rule="nonzero" transform="matrix(1 0 0 1.00218 299.908 19.7223)"/><path d="M339.741 144.89 339.741 294.775" stroke="#FAF8F4" stroke-width="2.4981" stroke-linecap="round" stroke-linejoin="miter" stroke-miterlimit="4" stroke-opacity="1" fill="none" fill-rule="nonzero" transform="matrix(1 0 0 1.00218 299.908 19.7223)"/><path d="M349.733 137.895C349.733 143.414 345.26 147.887 339.741 147.887 334.222 147.887 329.749 143.414 329.749 137.895 329.749 132.376 334.222 127.903 339.741 127.903 345.26 127.903 349.733 132.376 349.733 137.895Z" fill="#C4862A" fill-rule="nonzero" fill-opacity="1" transform="matrix(1 0 0 1.00218 299.908 19.7223)"/></g></g></svg>